<?xml version="1.0" encoding="utf-8"?>
<!-- Generator: Adobe Illustrator 21.1.0, SVG Export Plug-In . SVG Version: 6.00 Build 0)  -->
<svg version="1.1" xmlns="http://www.w3.org/2000/svg" xmlns:xlink="http://www.w3.org/1999/xlink" x="0px" y="0px"
	 viewBox="0 0 540 73.1" style="enable-background:new 0 0 540 73.1;" xml:space="preserve">
<style type="text/css">
	.st0{fill:#9D9D9E;}
	.st1{fill:#447BA5;}
	.st2{fill:#FEFEFE;}
	.st3{fill:#F7B400;}
	.st4{fill:#F9BE1B;}
	.st5{fill:#4D4A4A;}
	.st6{fill:#EAAD0D;}
	.st7{fill:#DCA61A;}
	.st8{fill:#FEFEFD;}
	.st9{fill:#F5F4F3;}
	.st10{fill:#477CA7;}
	.st11{fill:#E5E1D9;}
	.st12{fill:#100F0F;}
	.st13{fill:#0A0707;}
	.st14{fill:#C9C9CA;}
	.st15{fill:#FCFDFD;}
	.st16{fill:#FCFCFC;}
	.st17{fill:#251A17;}
</style>
<g id="レイヤー_1">
	<polygon class="st0" points="104,66.3 104,15.1 86,15.1 86,8.9 128.2,8.9 128.2,15.1 110.2,15.1 110.2,66.3 	"/>
	<path class="st0" d="M141.4,67.4c-11.3,0-20.4-9.3-20.4-20.8c0-12,8.7-20.7,20.6-20.7c11.8,0,20.1,9,20.1,21.9v1h-34.4
		c0.9,7.6,6.4,12.7,13.9,12.7c5.5,0,10.1-2.9,12.5-8.1L154,53h6.9l-0.4,0.9C156.9,62.6,150.1,67.4,141.4,67.4 M154.9,43.4
		c-1.9-7.8-6.6-11.7-14-11.7c-6.9,0-12.1,4.6-13.4,11.7H154.9z"/>
	<path class="st0" d="M188.1,67.3c-11.5,0-20.1-8.8-20.1-20.5c0-11.8,8.8-20.7,20.6-20.7c5.4,0,10.2,2.1,13.6,5.8v-5h6v39.4h-6v-4.9
		C198.8,65.1,193.6,67.3,188.1,67.3 M188.4,31.9c-7.9,0-14.1,6.6-14.1,15.1c0,8,6.3,14.5,14,14.5c6.7,0,13.9-6.1,13.9-15.1
		C202.1,38.6,195.7,31.9,188.4,31.9"/>
	<path class="st0" d="M234.3,67.4c-11.4,0-20.3-9.1-20.3-20.6c0-11.7,9-20.9,20.4-20.9c8.6,0,15.4,4.8,18.6,13.2l0.3,0.8h-6.7
		l-0.2-0.3c-2.9-5.3-6.9-7.8-12.7-7.8c-7.6,0-13.5,6.6-13.5,14.9c0,8.4,5.9,14.8,13.7,14.8c5.6,0,10.2-2.9,12.4-7.9l0.2-0.4h6.7
		l-0.3,0.8C250,62.5,243.2,67.4,234.3,67.4"/>
	<path class="st0" d="M288.3,66.3V46.2c0-10.4-2.7-14.1-10.2-14.1c-4.2,0-7.4,1.7-9.3,4.9c-1.5,2.7-1.5,5.8-1.5,10.2v19.2h-6.1V8.9
		h6.1v21.5c2.8-2.8,6.6-4.3,11.1-4.3c11.2,0,16,6,16,20.1v20H288.3z"/>
	<path class="st0" d="M385.5,66.3V45.4c0-9.6-2.8-13.4-10-13.4c-4.1,0-7.3,1.7-9.1,4.9c-1.5,2.7-1.5,5.8-1.5,10.2v19.2H359v-22
		c0-8.5-3.2-12.2-10.2-12.2c-4.2,0-7.4,1.7-9.3,4.9c-1.5,2.7-1.5,5.8-1.5,10.2v19.2h-6.1V26.9h6.1v3.4c2.9-2.8,6.7-4.2,11.2-4.2
		c5.6,0,10.6,2.4,13.4,6.3c3.2-4.1,7.9-6.3,13.5-6.3c10.7,0,15.5,6.3,15.5,20.3v19.9H385.5z"/>
	<path class="st0" d="M411.1,67.7c-11.4,0-20.7-9.4-20.7-21.1c0-12.2,8.8-21,20.9-21c12,0,20.3,9.1,20.3,22.2v1h-34.8
		c0.9,7.7,6.5,12.8,14.1,12.8c5.6,0,10.2-3,12.7-8.2l0.2-0.4h7l-0.4,0.9C426.7,62.9,419.8,67.7,411.1,67.7 M424.7,43.4
		c-1.9-7.9-6.7-11.8-14.2-11.8c-6.9,0-12.2,4.6-13.6,11.8H424.7z"/>
	<path class="st1" d="M298.5,47.2c0-1.9-1.5-3.4-3.4-3.4c-1.9,0-3.4,1.5-3.4,3.4c0,1.9,1.5,3.4,3.4,3.4
		C297,50.6,298.5,49,298.5,47.2"/>
	<path class="st1" d="M318.9,65c0.9-1,6.1-7.1,6.1-17.8c0-10.7-5.2-16.8-6.1-17.8c-1.2-1.2-2.2-1.2-2.7-0.6
		c-0.5,0.5-0.5,1.4,0.1,2.3c0.8,1.3,4.3,6.2,4.3,16.1c0,9.9-3.6,14.8-4.3,16.1c-0.5,0.9-0.5,1.8-0.1,2.3
		C316.8,66.2,317.8,66.2,318.9,65"/>
	<path class="st1" d="M315.2,47.2c0-7.5-3.7-12.1-4.5-12.9c-1-1-1.9-0.6-2.1-0.4c-0.5,0.4-0.6,1.2-0.1,2.1c0.6,1.1,2.9,5.6,2.9,11.2
		c0,5.7-2.3,10.1-2.9,11.2c-0.5,1-0.5,1.7,0.1,2.1c0.3,0.2,1.1,0.6,2.1-0.4C311.5,59.3,315.2,54.7,315.2,47.2"/>
	<path class="st1" d="M306.2,47.2c0-4.3-1.8-6.7-2.5-7.3c-0.9-0.8-1.1-0.8-1.6-0.5c-0.3,0.2-0.4,0.6,0,1.9c0.4,1.2,0.9,3.1,0.9,5.9
		c0,2.9-0.5,4.8-0.9,5.9c-0.4,1.2-0.3,1.7,0,1.9c0.5,0.3,0.7,0.3,1.6-0.5C304.5,53.9,306.2,51.4,306.2,47.2"/>
	<path class="st1" d="M496.1,9.1c-1.4,0-2.6,0.5-3.7,1.5c-1,1-1.5,2.3-1.5,3.7c0,1.4,0.5,2.6,1.5,3.7c1,1,2.2,1.5,3.7,1.5
		c1.4,0,2.7-0.5,3.7-1.5c1-1,1.5-2.3,1.5-3.7c0-1.4-0.5-2.7-1.5-3.7C498.7,9.6,497.5,9.1,496.1,9.1"/>
	<rect x="492.8" y="26.3" class="st1" width="6.5" height="39.9"/>
	<polygon class="st1" points="540,26.3 509.6,26.3 509.6,32.1 528.7,32.1 507,66.2 538.7,66.2 538.7,60.3 518.3,60.3 	"/>
	<path class="st2" d="M7.2,34.3c0,0.2,0,0.5,0,0.7c-0.2,0.2-0.4,0.3-0.7,0.4c-1,0.5-2.1,0.9-3,1.5c-3.7,2.6-4.6,7.5-2.1,11
		C3,50,5,51.1,7.6,51c0.8,0,1.5-0.2,2.3-0.3c0.1,0.1,0.1,0.3,0.2,0.4c0.1,0.2,0.1,0.4,0.3,0.6c0,0.1,0.1,0.2,0.1,0.3
		c2.3,5,5.7,9.3,9.9,12.8c1.6,1.4,3.4,2.5,5.2,3.6c0.1,1.4,0.1,2.8,0.2,4.1c0,0.2,0,0.4,0.2,0.5c0.2,0.1,0.3-0.1,0.5-0.2
		c1.1-0.8,2.3-1.6,3.4-2.4c0.2,0.1,0.3,0.1,0.5,0.2c7.8,2.9,15.7,3.2,23.7,0.9c1-0.3,2.1-0.7,3.1-1c1.1,0.8,2.2,1.6,3.3,2.3
		c0.1,0.1,0.3,0.3,0.5,0.2c0.2-0.1,0.2-0.3,0.2-0.5c0.1-1.3,0.1-2.7,0.2-4c0.1-0.1,0.2-0.1,0.3-0.2c11.9-6.9,18.9-19.4,18.4-33.2
		c-0.2-5.6-1.6-10.8-4.2-15.7C68.2,4.8,51.4-2.8,35.3,1c-13.2,3.1-23.5,13.2-27,26.2c-0.5,2.1-1,4.1-1,6.3C7.2,33.8,7.2,34,7.2,34.3
		"/>
	<path class="st3" d="M7.3,33.5c0.1-2.1,0.5-4.2,1-6.3C11.8,14.1,22.1,4.1,35.3,1c16.1-3.8,32.9,3.8,40.6,18.4
		c2.6,4.9,4,10.1,4.2,15.7c0.5,13.8-6.4,26.3-18.4,33.2c-0.1,0.1-0.2,0.1-0.3,0.2c-0.6,0.3-1.2,0.6-1.9,0.9
		c-0.8,0.4-1.6,0.7-2.3,1.1c-1,0.3-2.1,0.7-3.1,1c-8,2.3-15.9,2-23.7-0.9c-0.2-0.1-0.3-0.1-0.5-0.2c-1.5-0.6-2.9-1.3-4.3-2.1
		c-1.8-1.1-3.6-2.3-5.2-3.6c-4.3-3.5-7.6-7.8-9.9-12.8c0-0.1-0.1-0.2-0.1-0.3c0.2,0,0.4,0,0.5-0.1c2.8-1.1,4.6-3.2,5.7-5.9
		c0.2-0.6,0.3-1.3,0.7-1.8c0.2,0.1,0.4,0.2,0.5,0.4c3.4,2.8,7.4,4.1,11.7,4c9.4-0.1,18.7,0.1,28.1-0.1c2.6,0,5.2-0.5,7.6-1.5
		c7.2-3.3,11.3-11.2,9.7-19c-1.8-8.9-10.1-15-19.2-13.8c-4.4,0.6-8,2.6-10.9,6c-0.5,0.6-0.9,1.2-1.4,1.8c-0.1-0.2-0.2-0.3-0.3-0.4
		c-4.2-5.7-9.8-8.2-16.7-7.3c-6.4,0.9-10.8,4.5-13.4,10.4c-0.6,1.3-1,2.7-1.1,4.2c0,0.1-0.1,0.2-0.1,0.3c-0.4,0.1-0.7,0.4-0.9,0.7
		c-0.6,0.8-1.1,1.7-1.8,2.4C8.6,32.6,8,33.2,7.3,33.5"/>
	<path class="st4" d="M9.9,50.7C9.2,50.8,8.4,51,7.6,51C5,51.1,3,50,1.4,47.9c-2.6-3.5-1.6-8.4,2.1-11c0.9-0.7,2-1.1,3-1.5
		C6.7,35.3,7,35.2,7.2,35c2.1-0.9,3.6-2.6,4.6-4.6c0.1-0.1,0.1-0.1,0.2-0.2c0.7-0.9,1.4-0.9,2.2-0.1c0.4,0.4,0.6,0.8,0.9,1.3
		c0.2,0.3,0.3,0.7,0.5,1c0.6,2,1,3.9,1,6c0,1.5-0.1,2.9-0.3,4.3c-0.3,0.9-0.4,1.8-0.8,2.6c-0.8,1.9-1.9,3.4-3.7,4.5
		C11.1,50.1,10.5,50.3,9.9,50.7"/>
	<path class="st5" d="M25.7,68.4c1.4,0.7,2.8,1.4,4.3,2.1c-1.1,0.8-2.3,1.6-3.4,2.4c-0.1,0.1-0.3,0.3-0.5,0.2
		c-0.2-0.1-0.2-0.3-0.2-0.5C25.8,71.2,25.8,69.8,25.7,68.4"/>
	<path class="st5" d="M57.3,70.5c0.8-0.4,1.6-0.7,2.3-1.1c0.6-0.3,1.2-0.6,1.9-0.9c-0.1,1.3-0.1,2.7-0.2,4c0,0.2,0,0.4-0.2,0.5
		c-0.2,0.1-0.3-0.1-0.5-0.2C59.5,72.1,58.4,71.3,57.3,70.5"/>
	<path class="st6" d="M17.4,43.9c-0.4,0.5-0.5,1.2-0.7,1.8c-1.1,2.7-2.9,4.8-5.7,5.9c-0.2,0.1-0.4,0.1-0.5,0.1
		c-0.1-0.2-0.2-0.4-0.3-0.6c0.2,0,0.4-0.1,0.6-0.2c2.1-0.9,3.8-2.4,4.8-4.5c0.5-1,0.8-2.2,1.2-3.2c0.1,0.1,0.1,0.2,0.3,0.2
		c0.1,0.1,0.2,0.2,0.3,0.3C17.4,43.8,17.4,43.9,17.4,43.9"/>
	<path class="st7" d="M16.8,43.3c-0.4,1.1-0.7,2.2-1.2,3.2c-1.1,2.1-2.7,3.5-4.8,4.5c-0.2,0.1-0.4,0.1-0.6,0.2
		c-0.1-0.1-0.1-0.3-0.2-0.4c0.6-0.3,1.2-0.5,1.8-0.9c1.8-1.1,2.9-2.6,3.7-4.5c0.4-0.8,0.5-1.7,0.8-2.6
		C16.5,42.9,16.6,43.1,16.8,43.3"/>
	<path class="st6" d="M7.3,33.5C8,33.2,8.6,32.6,9.2,32c0.7-0.7,1.2-1.6,1.8-2.4c0.2-0.3,0.5-0.6,0.9-0.7c0,0.2,0,0.3,0,0.5
		c0,0.2-0.1,0.3-0.1,0.5c-0.2,0-0.2,0.1-0.3,0.3c-0.8,1.1-1.5,2.2-2.6,3.1c-0.5,0.4-1,0.9-1.7,1C7.2,34,7.2,33.8,7.3,33.5"/>
	<path class="st7" d="M7.2,34.3c0.7-0.1,1.2-0.6,1.7-1c1-0.9,1.8-2,2.6-3.1c0.1-0.1,0.2-0.3,0.3-0.3c0,0.2,0,0.3,0,0.5
		c-1,2.1-2.5,3.7-4.6,4.6C7.2,34.8,7.2,34.5,7.2,34.3"/>
	<path class="st8" d="M17.4,43.9c0-0.1,0-0.1,0-0.2c0.2-0.1,0.2-0.2,0.2-0.4c0.1-0.7,0.3-1.3,0.3-2c0-1.1,0.3-2.3,0.1-3.4
		c-0.1-0.4-0.3-0.9,0.1-1.3c1,1.7,2.4,2.7,4.3,3.1c4.1,0.8,8.2,0.8,12.3,0c2-0.4,3.5-1.5,4.4-3.4c0.5-1,0.8-2.1,0.9-3.3
		c0-0.4,0.2-0.7,0.5-1c1.7-1.3,3.9-1.3,5.6-0.2c0.5,0.4,0.9,0.8,0.9,1.4c0,0.3,0.1,0.5,0.1,0.8c0.6,2.9,2.1,5,5.1,5.6
		c4.1,0.8,8.2,0.8,12.2,0c2.2-0.4,3.7-1.7,4.7-3.7c0.4-0.9,0.8-1.8,1-2.7c0.1-0.7,0.3-0.8,1-0.9c0.5,0,0.7-0.2,0.7-0.8
		c0-0.5,0-0.9,0-1.4c0-0.5-0.2-0.7-0.7-0.8c-0.4,0-0.8-0.1-1-0.5c-0.7-1.3-1.8-1.8-3.1-2.2c-1.3-0.4-2.7-0.5-4.1-0.7
		c0-0.1-0.1-0.1-0.1-0.2c-2.6-2.7-7.6-2.7-10.1,0.4c-0.1,0-0.1,0-0.1,0c-1.3,0.2-2.5,0.5-3.7,1c-1,0.5-1.8,1.2-1.9,2.3
		c-0.1,0.4-0.2,0.4-0.5,0.3c-2-0.6-4-0.6-5.9,0c-0.4,0.1-0.5,0-0.5-0.3c-0.1-0.8-0.6-1.5-1.3-1.9c-0.7-0.5-1.5-0.8-2.3-1
		c-0.8-0.2-1.6-0.3-2.4-0.5c-0.1-0.3-0.3-0.4-0.5-0.6c-1.7-1.4-3.7-1.9-5.9-1.5c-1.5,0.3-2.7,0.9-3.7,2c-0.2,0-0.5,0.1-0.7,0.1
		c-1.4,0.2-2.8,0.4-4.1,0.9c-0.8,0.3-1.5,0.7-1.9,1.4c-0.4,0.7-0.9,1-1.7,0.9c-0.2-0.2-0.3-0.4-0.5-0.5c-0.9-0.7-1.9-0.8-3-0.4
		c0.1-1.5,0.5-2.9,1.1-4.2c2.6-5.9,7-9.5,13.4-10.4c7-1,12.6,1.6,16.7,7.3c0.1,0.1,0.2,0.3,0.3,0.4c0.5-0.6,0.9-1.2,1.4-1.8
		c2.9-3.4,6.5-5.4,10.9-6c9-1.2,17.4,4.9,19.2,13.8c1.6,7.8-2.5,15.8-9.7,19c-2.4,1.1-5,1.5-7.6,1.5c-9.4,0.2-18.7,0-28.1,0.1
		c-4.4,0-8.3-1.2-11.7-4C17.8,44.2,17.6,44,17.4,43.9 M44,45.5c1.3-2.3,2.6-4.7,3.9-7.1h-4.1h-4.6c0.1,0.2,0.2,0.4,0.3,0.5
		c1,1.8,2,3.7,3,5.5c0.2,0.4,0.5,0.9,0.7,1.3c0.1,0.1,0.1,0.3,0.4,0.3c0.2,0,0.3-0.2,0.3-0.3C44,45.7,44,45.6,44,45.5"/>
	<path class="st9" d="M12,28.6c1.1-0.4,2-0.3,3,0.4c0.2,0.2,0.3,0.4,0.5,0.5c-0.1,0.2-0.3,0.2-0.3,0.4c-0.2,0-0.3-0.1-0.5-0.2
		c-0.5-0.4-1.1-0.7-1.8-0.6c-0.3,0.1-0.6,0.3-1,0.3c0-0.2,0-0.3,0-0.5C11.9,28.8,11.9,28.7,12,28.6"/>
	<path class="st10" d="M15.1,29.9c0-0.2,0.3-0.2,0.3-0.4c0.8,0,1.3-0.2,1.7-0.9c0.4-0.7,1.2-1.1,1.9-1.4c1.3-0.5,2.7-0.8,4.1-0.9
		c0.2,0,0.5-0.1,0.7-0.1c0.6,0,1.3-0.1,1.9-0.1c1.6,0,3.1,0,4.7,0c1.2,0,2.3,0.1,3.5,0.2c0.8,0.2,1.6,0.3,2.4,0.5
		c0.8,0.2,1.6,0.5,2.3,1c0.7,0.5,1.2,1.1,1.3,1.9c0.1,0.3,0.2,0.4,0.5,0.3c2-0.5,4-0.5,5.9,0c0.3,0.1,0.4,0.1,0.5-0.3
		c0.2-1.1,0.9-1.8,1.9-2.3c1.2-0.6,2.4-0.8,3.7-1c0,0,0.1,0,0.1,0c1.5-0.2,3-0.3,4.5-0.3c1.9,0,3.8,0,5.8,0.1
		c1.4,0.2,2.8,0.3,4.1,0.7c1.3,0.4,2.4,0.9,3.1,2.2c0.2,0.4,0.6,0.5,1,0.5c0.5,0,0.7,0.2,0.7,0.8c0,0.5,0,0.9,0,1.4
		c0,0.5-0.2,0.7-0.7,0.8c-0.7,0-0.9,0.2-1,0.9c-0.2,1-0.5,1.9-1,2.7c-1,1.9-2.5,3.2-4.7,3.7c-4.1,0.8-8.2,0.8-12.2,0
		c-3.1-0.6-4.5-2.7-5.1-5.6c-0.1-0.3-0.1-0.5-0.1-0.8c0-0.7-0.4-1.1-0.9-1.4c-1.7-1.1-4-1.1-5.6,0.2c-0.3,0.3-0.5,0.5-0.5,1
		c-0.1,1.1-0.4,2.2-0.9,3.3c-0.9,1.9-2.4,3-4.4,3.4c-4.1,0.8-8.2,0.8-12.3,0c-1.9-0.4-3.3-1.4-4.3-3.1c-0.2-0.6-0.7-1-0.8-1.6
		c-0.1-0.5-0.3-1-0.4-1.5c-0.3-1.1-0.3-1.1-1.4-1.1c-0.2-0.3-0.3-0.7-0.5-1C15.1,30.9,15.1,30.4,15.1,29.9 M32.4,27.9
		c-0.1,0-0.2-0.1-0.3-0.1c-2.2-0.1-4.3-0.2-6.5,0c-1.1,0-2.1,0.1-3.2,0.3c-0.9,0.1-1.8,0.3-2.7,0.7c-0.9,0.5-1.5,1.2-1.5,2.2
		c-0.1,1.3,0.3,2.6,0.8,3.8c0.8,1.9,2.1,3,4.2,3.4c3.7,0.6,7.4,0.6,11.1-0.1c2.2-0.4,3.4-1.8,3.9-3.8c0.3-1,0.3-2,0.4-3
		c0.1-1.2-0.4-2.1-1.5-2.6c-0.5-0.2-1-0.4-1.5-0.5C34.6,28,33.5,27.9,32.4,27.9 M61.5,27.8c-1.3-0.1-2.6-0.1-3.9-0.1
		c-1,0.1-2-0.1-3,0.2c-1,0-2.1,0.1-3.1,0.4c-0.6,0.1-1.1,0.3-1.6,0.5c-0.9,0.4-1.4,1.2-1.4,2.2c0,0.9,0.1,1.8,0.2,2.7
		c0.5,2.4,1.7,4.1,4.3,4.5c3.8,0.6,7.5,0.7,11.2-0.1c1.4-0.3,2.5-1,3.3-2.3c0.8-1.2,1.2-2.6,1.3-4c0.1-1.6-0.5-2.6-2-3.1
		c-0.8-0.3-1.6-0.5-2.4-0.6C63.6,27.9,62.5,27.8,61.5,27.8"/>
	<path class="st11" d="M15.6,32.4c1.1,0,1.1,0,1.4,1.1c0.1,0.5,0.3,1,0.4,1.5c-0.1,0-0.2,0-0.2,0.2c0.1,0.5,0.2,1.1,0.2,1.6
		c0.1,0.8,0.1,1.6,0.1,2.3c0,1.5-0.2,3-0.5,4.4c-0.1,0-0.2-0.1-0.3-0.2c-0.2-0.2-0.4-0.4-0.5-0.6c0.3-1.4,0.4-2.9,0.3-4.3
		C16.6,36.3,16.2,34.3,15.6,32.4"/>
	<path class="st11" d="M15.1,29.9c0,0.5,0,1,0,1.4c-0.3-0.4-0.6-0.9-0.9-1.3c-0.8-0.8-1.6-0.7-2.2,0.1c-0.1,0.1-0.1,0.1-0.2,0.2
		c0-0.2,0-0.3,0-0.5c0-0.2,0.1-0.3,0.1-0.5c0.4,0,0.6-0.2,1-0.3c0.7-0.1,1.3,0.2,1.8,0.6C14.8,29.8,14.9,29.9,15.1,29.9"/>
	<path class="st9" d="M17.1,43.5c0.3-1.5,0.5-2.9,0.5-4.4c0-0.8,0-1.6-0.1-2.3c-0.1-0.6-0.2-1.1-0.2-1.6c0-0.1,0.1-0.1,0.2-0.2
		c0.1,0.6,0.6,1.1,0.8,1.6c-0.4,0.4-0.2,0.9-0.1,1.3c0.2,1.2-0.1,2.3-0.1,3.4c0,0.7-0.2,1.3-0.3,2c0,0.2-0.1,0.3-0.2,0.4
		C17.3,43.6,17.2,43.5,17.1,43.5"/>
	<path class="st12" d="M44,45.5c0,0.1-0.1,0.2-0.1,0.2c-0.1,0.2-0.1,0.3-0.3,0.3c-0.2,0-0.3-0.2-0.4-0.3c-0.2-0.4-0.5-0.9-0.7-1.3
		c-1-1.8-2-3.7-3-5.5c-0.1-0.1-0.1-0.3-0.3-0.5h4.6c0,2.1,0,4.3,0,6.4C43.8,45.1,43.8,45.3,44,45.5"/>
	<path class="st13" d="M44,45.5c-0.2-0.2-0.2-0.4-0.2-0.7c0-2.1,0-4.3,0-6.4H48C46.7,40.8,45.4,43.2,44,45.5"/>
	<path class="st14" d="M63.2,26.1C61.2,26,59.3,26,57.4,26c-1.5,0-3,0.1-4.5,0.3c2.6-3,7.5-3.1,10.1-0.4C63.1,26,63.1,26,63.2,26.1"
		/>
	<path class="st14" d="M34.1,26.2c-1.2-0.1-2.3-0.2-3.5-0.2c-1.6,0-3.1,0-4.7,0c-0.6,0-1.3,0.1-1.9,0.1c1-1.1,2.3-1.8,3.7-2
		c2.2-0.4,4.2,0.1,5.9,1.5C33.8,25.8,34,25.9,34.1,26.2"/>
	<path class="st15" d="M35.6,28.2c0.5,0.1,1,0.2,1.5,0.5c1.1,0.5,1.6,1.3,1.5,2.6c-0.1,1-0.1,2-0.4,3c-0.5,2-1.7,3.4-3.9,3.8
		c-3.7,0.7-7.4,0.7-11.1,0.1c-2-0.3-3.4-1.5-4.2-3.4c-0.5-1.2-0.9-2.4-0.8-3.8c0.1-1.1,0.6-1.8,1.5-2.2c0.8-0.4,1.8-0.6,2.7-0.7
		c0,0.2-0.1,0.4-0.1,0.5c-0.4,1.2-0.5,2.5-0.3,3.8c0.6,3.7,4.4,6.3,8.3,5.6c2-0.4,3.5-1.5,4.6-3.2c0.9-1.3,1.2-2.8,1.1-4.4
		C36,29.7,35.7,29,35.6,28.2"/>
	<path class="st15" d="M64.6,28c0.8,0.1,1.6,0.3,2.4,0.6c1.5,0.6,2.1,1.6,2,3.1c-0.1,1.4-0.6,2.8-1.3,4c-0.8,1.3-1.9,2-3.3,2.3
		c-3.7,0.7-7.5,0.7-11.2,0.1c-2.6-0.4-3.8-2.1-4.3-4.5c-0.2-0.9-0.2-1.8-0.2-2.7c0-1,0.5-1.8,1.4-2.2c0.5-0.2,1-0.4,1.6-0.5
		c-0.2,0.6-0.4,1.2-0.4,1.8c-0.3,2.2,0.3,4.2,1.9,5.8c1.9,1.9,4.2,2.6,6.8,2c2.9-0.6,5.4-3.6,5.4-6.5C65.2,30.2,65,29.1,64.6,28"/>
	<path class="st14" d="M64.6,28c0.4,1.1,0.6,2.2,0.6,3.3c0,2.9-2.5,5.9-5.4,6.5c-2.6,0.5-4.9-0.1-6.8-2c-1.5-1.6-2.1-3.6-1.9-5.8
		c0.1-0.6,0.3-1.2,0.4-1.8c1-0.3,2-0.4,3.1-0.4c0,0.1-0.1,0.2-0.1,0.2c-0.7,0.9-1,1.8-1,3c0,2.9,2.8,5.1,5.7,4.5
		c2.5-0.6,4-3.1,3.4-5.6c-0.2-0.8-0.7-1.5-1.1-2.2C62.5,27.8,63.6,27.9,64.6,28"/>
	<path class="st14" d="M35.6,28.2c0.1,0.7,0.4,1.4,0.4,2.2c0.1,1.6-0.2,3-1.1,4.4c-1.1,1.7-2.6,2.8-4.6,3.2
		c-3.9,0.7-7.6-1.9-8.3-5.6c-0.2-1.3-0.2-2.5,0.3-3.8c0.1-0.2,0.1-0.4,0.1-0.5c1.1-0.2,2.1-0.3,3.2-0.3c-1.1,1.2-1.6,2.6-1.2,4.2
		c0.5,2,1.8,3.2,3.8,3.5c2.8,0.5,5.2-1.7,5.4-4.3c0.1-1.3-0.4-2.4-1.2-3.4C33.5,27.9,34.6,28,35.6,28.2"/>
	<path class="st16" d="M32.4,27.9c0.8,1,1.3,2.1,1.2,3.4c-0.2,2.6-2.6,4.8-5.4,4.3c-2-0.4-3.3-1.6-3.8-3.5c-0.4-1.6,0.1-3,1.2-4.2
		c2.2-0.2,4.3-0.1,6.5,0C32.2,27.8,32.3,27.8,32.4,27.9 M30.5,28.2c-1.6,0-2.8,1.2-2.8,2.8c0,1.6,1.2,2.8,2.8,2.8
		c1.6,0,2.8-1.2,2.8-2.8C33.2,29.4,32,28.2,30.5,28.2"/>
	<path class="st16" d="M61.5,27.8c0.5,0.7,0.9,1.3,1.1,2.2c0.6,2.5-0.9,5-3.4,5.6c-2.8,0.7-5.6-1.5-5.7-4.5c0-1.1,0.3-2.1,1-3
		c0.1-0.1,0.1-0.1,0.1-0.2c1-0.2,2-0.1,3-0.2C58.9,27.6,60.2,27.7,61.5,27.8 M59.6,28.2c-1.5,0-2.8,1.2-2.8,2.7
		c0,1.6,1.2,2.8,2.8,2.8c1.6,0,2.8-1.2,2.8-2.7C62.4,29.5,61.2,28.2,59.6,28.2"/>
	<path class="st17" d="M30.5,28.2c1.6,0,2.8,1.2,2.8,2.7c0,1.6-1.2,2.8-2.8,2.8c-1.6,0-2.8-1.2-2.8-2.8
		C27.7,29.5,28.9,28.2,30.5,28.2"/>
	<path class="st17" d="M59.6,28.2c1.6,0,2.8,1.2,2.8,2.9c0,1.5-1.2,2.7-2.8,2.7c-1.6,0-2.8-1.3-2.8-2.8C56.8,29.4,58,28.2,59.6,28.2
		"/>
	<path class="st1" d="M448.1,66.1V9h13.6c4.5,0,8,0.5,10.4,1.6c2.4,1.1,4.4,2.8,5.8,5c1.4,2.2,2.1,4.8,2.1,7.5c0,2.6-0.6,4.9-1.9,7
		c-1.1,1.9-2.8,3.5-4.9,4.8c2.7,1,4.8,2.1,6.3,3.3c1.6,1.4,2.9,3,3.8,5c0.9,1.9,1.3,4.1,1.3,6.3c0,4.6-1.7,8.5-5.1,11.7
		c-3.4,3.2-7.9,4.8-13.5,4.8H448.1z M463,60c4.1,0,7.1-0.4,9-1.2c1.9-0.8,3.4-2,4.5-3.7c1.1-1.7,1.7-3.5,1.7-5.4
		c0-2.4-0.8-4.6-2.4-6.4c-1.6-1.8-3.8-3.1-6.6-3.7c-1.9-0.5-6.1-0.7-10.9-0.7h-4.1V60H463z M458.4,32.6c3.9,0,7.6-0.4,9.4-1.1
		c1.8-0.7,3.2-1.8,4.2-3.3c1-1.5,1.6-3.2,1.6-5.1c0-2.5-0.9-4.4-2.6-5.9c-1.7-1.4-4.6-2.1-8.4-2.1h-8.4v17.5H458.4z"/>
</g>
<g id="レイヤー_2">
</g>
</svg>
